<?xml version="1.0" encoding="utf-8"?>
<!-- Generator: Adobe Illustrator 21.0.0, SVG Export Plug-In . SVG Version: 6.00 Build 0)  -->
<svg version="1.1" id="Layer_1" xmlns="http://www.w3.org/2000/svg" xmlns:xlink="http://www.w3.org/1999/xlink" x="0px" y="0px"
	 viewBox="0 0 595 842" style="enable-background:new 0 0 595 842;" xml:space="preserve">
<style type="text/css">
	.st0{fill-rule:evenodd;clip-rule:evenodd;fill:#C6C6C6;}
	.st1{fill-rule:evenodd;clip-rule:evenodd;fill:#00B1EB;}
	.st2{fill-rule:evenodd;clip-rule:evenodd;fill:#76B82A;}
	.st3{fill-rule:evenodd;clip-rule:evenodd;fill:#F7A600;}
</style>
<g>
	<path class="st0" d="M-269,355.4c-29.5,1.6-58.9,4-58.9,29.7c0,15.3,11.8,24.6,34,24.6c9.4,0,20.3-1.6,24.9-3.8V355.4L-269,355.4z
		 M-293.1,430.9c-41.5,0-62.4-16.9-62.4-45.3c0-40.2,42.8-47.4,86.5-49.8v-9.1c0-18.2-12-24.7-30.5-24.7c-13.7,0-30.3,4.3-39.9,8.8
		l-7.5-20.1c11.5-5.1,31.1-10.2,50.3-10.2c34.6,0,55.4,13.4,55.4,49v91.1C-251.6,426.3-272.8,430.9-293.1,430.9z"/>
	<path class="st0" d="M-141,427.9h-33.7l-52.5-144.4h32.7L-164,380c3.5,10.5,5.9,22.5,5.9,22.5h0.5c0,0,2.4-12,5.6-22.5l30.8-96.4
		h32.7L-141,427.9z"/>
	<path class="st0" d="M10.7,307.2c-4.5-1.9-12.6-3.7-21.4-3.7c-22.8,0-40.2,14.5-40.2,49.3c0,31.6,15.3,47.4,38,47.4
		c8,0,18.2-2.1,23.6-5.1L10.7,307.2L10.7,307.2z M-22,488.2c-21.2,0-39.4-5.1-51.4-11l8.6-23c9.4,5.1,24.6,9.1,40.2,9.1
		c23.8,0,35.4-12.6,35.4-35.9l0-10.7c-7.5,3.5-19,5.9-29.2,5.9c-36.4,0-61.9-25.2-61.9-68.8c0-49.8,29.2-73.1,71.8-73.1
		c19,0,36.7,4.3,48.2,10.2v136.6C39.6,466.8,16,488.2-22,488.2z"/>
	<path class="st0" d="M129.8,430.9c-38,0-58.4-15.8-58.4-52v-95.3h29.2v95.9c0,18.5,9.9,27.3,29.2,27.3c11.2,0,20.9-1.9,25.7-4
		l0-119.2h29.2v137.1C172.9,426.6,151.7,430.9,129.8,430.9z"/>
	<path class="st0" d="M252.2,430.9c-16.9,0-34.5-4.6-45-10.2l9.9-22.5c7.5,4.6,23.3,9.4,34.3,9.4c15.8,0,26.2-7.7,26.2-19.8
		c0-13.1-11-18.2-25.7-23.6c-19.3-7.2-41-16.1-41-43.1c0-23.8,18.5-40.4,50.6-40.4c17.4,0,31.9,4.3,42.1,10.2l-9.1,20.4
		c-6.4-4-19.3-8.6-29.7-8.6c-15.3,0-23.9,8-23.9,18.5c0,13.1,10.7,17.7,24.9,23c20.1,7.5,42.3,15.8,42.3,43.9
		C308.1,414,288.3,430.9,252.2,430.9z"/>
	<path class="st0" d="M382.7,429.8c-25.4,0-39.6-14.2-39.6-42.3v-82h-19.5v-21.9h19.5v-33.5l28.7-8.8v42.3h29.2v21.9h-29.2v80.4
		c0,13.1,8.6,18.2,19.3,18.2c3.5,0,7.5-0.8,9.9-1.9v24.4C397.4,428.2,390.2,429.8,382.7,429.8z"/>
	<path class="st0" d="M119.5,575.9c-13.2,0-27.5-9.6-27.5-33.9c0-24.4,14.3-33.8,27.5-33.8c6.1,0,11.8,1.9,15.5,4.5l-2.6,5.3
		c-3.1-2.2-7.9-3.7-12.5-3.7c-9.9,0-20.7,7.3-20.7,27.7c0,20.5,10.9,27.8,20.7,27.8c4.6,0,9.3-1.6,12.5-3.8l2.6,5.5
		C131,574,125.5,575.9,119.5,575.9z"/>
	<path class="st0" d="M180,514.5c-1.5-0.3-3.2-0.4-4.9-0.4c-5.2,0-11.1,1-14.5,2.5l0,57.9h-7.1v-62.1c5.4-2.7,14.4-4.5,22.5-4.5
		c2.7,0,5,0.1,5.6,0.3L180,514.5z"/>
	<path class="st0" d="M220.6,514c-13.5,0-19.8,11.9-19.8,27.9c0,16,6.3,27.9,19.8,27.9c13.5,0,19.8-11.9,19.8-27.9
		C240.3,525.9,234,514,220.6,514L220.6,514z M220.6,575.9c-17.7,0-26.9-14.7-26.9-33.9c0-19.3,9.2-33.8,26.9-33.8
		c17.7,0,26.9,14.6,26.9,33.8C247.5,561.2,238.3,575.9,220.6,575.9z"/>
	<path class="st0" d="M286.9,514c-5,0-10.3,1.2-12.6,2.4l0,51.1c2.2,0.8,7.9,1.9,12.4,1.9c15.3,0,23.4-12.2,23.4-28.5
		C310,525,301.8,514,286.9,514L286.9,514z M287,575.5c-5.1,0-10.2-1-12.7-2l0,27.2h-7.1v-88.1c4-2.3,12.1-4.5,19.6-4.5
		c19.3,0,30.4,13.3,30.4,33C317.2,560.9,306.3,575.5,287,575.5z"/>
	<path class="st0" d="M393.7,514c-5,0-10.3,1.2-12.6,2.4l0,51.1c2.2,0.8,7.9,1.9,12.4,1.9c15.3,0,23.4-12.2,23.4-28.5
		C416.9,525,408.6,514,393.7,514L393.7,514z M393.8,575.5c-5.1,0-10.2-1-12.8-2l0,27.2h-7.1v-88.1c4-2.3,12.1-4.5,19.6-4.5
		c19.3,0,30.4,13.3,30.4,33C424,560.9,413.1,575.5,393.8,575.5z"/>
	<path class="st0" d="M470.1,514.5c-1.5-0.3-3.2-0.4-4.8-0.4c-5.2,0-11.2,1-14.6,2.5l0,57.9h-7.1v-62.1c5.5-2.7,14.4-4.5,22.5-4.5
		c2.7,0,5,0.1,5.6,0.3L470.1,514.5z"/>
	<path class="st0" d="M510.7,514c-13.5,0-19.8,11.9-19.8,27.9c0,16,6.3,27.9,19.8,27.9c13.5,0,19.8-11.9,19.8-27.9
		C530.4,525.9,524.1,514,510.7,514L510.7,514z M510.7,575.9c-17.7,0-26.9-14.7-26.9-33.9c0-19.3,9.2-33.8,26.9-33.8
		c17.7,0,26.9,14.6,26.9,33.8C537.6,561.2,528.4,575.9,510.7,575.9z"/>
	<path class="st0" d="M577.9,575.3c-9.7,0-16.6-5.3-16.6-16.4v-44.1h-10.2v-5.5h10.2v-16.2l6.9-2.7v18.9h14.8v5.5h-14.8v43.9
		c0,7.3,5,10.3,10.8,10.3c1.5,0,3-0.2,4-0.6l0,6.2C581.9,575,580.2,575.3,577.9,575.3z"/>
	<path class="st0" d="M624.4,513.8c-12.9,0-20.7,10.5-21.1,26.6l39.4-5.7C642.6,520.5,635.3,513.8,624.4,513.8L624.4,513.8z
		 M649.5,539l-45.8,6.8c1,16,9.9,24.1,23.7,24.1c6.5,0,13.6-1.7,17.7-4.1l2.4,5.6c-4.4,2.5-12.1,4.5-20.4,4.5
		c-18.7,0-30.4-11.8-30.4-33.9c0-20.1,10.5-33.8,27.6-33.8c15.1,0,25.2,9.8,25.2,27C649.6,536.4,649.6,537.6,649.5,539z"/>
	<path class="st0" d="M694.2,575.9c-13.2,0-27.5-9.6-27.5-33.9c0-24.4,14.3-33.8,27.5-33.8c6.1,0,11.8,1.9,15.5,4.5l-2.5,5.3
		c-3.2-2.2-7.9-3.7-12.5-3.7c-9.9,0-20.7,7.3-20.7,27.7c0,20.5,10.9,27.8,20.7,27.8c4.6,0,9.3-1.6,12.5-3.8l2.5,5.5
		C705.8,574,700.3,575.9,694.2,575.9z"/>
	<path class="st0" d="M749.5,575.3c-9.7,0-16.6-5.3-16.6-16.4l0-44.1h-10.2v-5.5h10.2v-16.2l6.9-2.7v18.9h14.8v5.5h-14.8v43.9
		c0,7.3,5,10.3,10.8,10.3c1.4,0,3-0.2,4-0.6l0,6.2C753.5,575,751.8,575.3,749.5,575.3z"/>
	<path class="st0" d="M772.8,574.7v-65.4h7.1v65.4H772.8L772.8,574.7z M776.4,494.8c-2.8,0-5.1-2.2-5.1-5c0-2.8,2.3-5,5.1-5
		c2.8,0,5,2.2,5,5C781.4,492.6,779.2,494.8,776.4,494.8z"/>
	<path class="st0" d="M827.1,514c-13.5,0-19.8,11.9-19.8,27.9c0,16,6.3,27.9,19.8,27.9c13.5,0,19.8-11.9,19.8-27.9
		C846.9,525.9,840.6,514,827.1,514L827.1,514z M827.1,575.9c-17.7,0-26.9-14.7-26.9-33.9c0-19.3,9.2-33.8,26.9-33.8
		c17.7,0,26.9,14.6,26.9,33.8C854,561.2,844.8,575.9,827.1,575.9z"/>
	<path class="st0" d="M914.5,574.7v-44.6c0-9.7-5.9-16-17.8-16c-6.5,0-12.2,1.2-15.9,2.7v57.9h-7.2v-62.1c6-2.7,14.1-4.5,23-4.5
		c16.2,0,25,8.1,25,21.6v45H914.5z"/>
	<path class="st1" d="M482.6,355.1c0,15.8,6,31.5,18,43.6c12,12,27.8,18,43.5,18h0c15.8,0,31.5-6,43.5-18c12-12,18-27.8,18-43.6v0
		c0-15.7-6-31.5-18-43.5c-12-12-27.8-18.1-43.5-18.1l-61.6,0V355.1z"/>
	<path class="st2" d="M713,293.6c-15.8,0-31.5,6-43.6,18.1c-12,12-18,27.8-18,43.5l0,0c0,15.8,6,31.5,18,43.6c12,12,27.8,18,43.6,18
		h0c15.8,0,31.5-6,43.5-18c12-12,18.1-27.8,18.1-43.6v-61.6H713z"/>
	<path class="st3" d="M888.9,416.7c15.8,0,31.5-6,43.6-18c12-12,18-27.8,18-43.5l0,0c0-15.8-6-31.5-18-43.5c-12-12-27.8-18-43.6-18
		l0,0c-15.7,0-31.5,6-43.5,18c-12,12-18.1,27.8-18.1,43.5l0,61.6H888.9z"/>
</g>
</svg>
